<?xml version="1.0" standalone="no"?>
<!DOCTYPE svg PUBLIC "-//W3C//DTD SVG 20010904//EN"
 "http://www.w3.org/TR/2001/REC-SVG-20010904/DTD/svg10.dtd">
<svg version="1.0" xmlns="http://www.w3.org/2000/svg"
 width="1000.000000pt" height="1000.000000pt" viewBox="0 0 1000.000000 1000.000000"
 preserveAspectRatio="xMidYMid meet">
<metadata>
Created by potrace 1.16, written by Peter Selinger 2001-2019
</metadata>
<g transform="translate(0.000000,1000.000000) scale(0.100000,-0.100000)"
fill="#000000" stroke="none">
<path d="M4821 9449 c-71 -12 -162 -62 -199 -108 -34 -42 -82 -133 -82 -155 0
-8 -18 -29 -39 -48 -46 -39 -58 -69 -36 -91 12 -13 13 -20 3 -41 -16 -36 3
-76 36 -76 14 0 28 -4 31 -10 3 -5 15 -10 26 -10 30 0 40 -41 37 -156 -2 -72
1 -107 10 -115 6 -7 12 -26 12 -41 0 -15 7 -46 16 -68 16 -40 16 -40 -13 -73
-19 -22 -52 -94 -94 -207 -64 -173 -64 -175 -128 -237 -75 -73 -95 -77 -160
-33 -38 25 -51 28 -88 23 -40 -5 -47 -3 -99 40 -31 26 -65 58 -76 72 -25 32
-35 31 -78 -5 -22 -20 -45 -30 -66 -30 -27 0 -36 8 -68 55 -20 30 -40 55 -45
55 -9 0 -99 106 -179 212 -50 65 -58 70 -131 73 -40 2 -58 7 -68 21 -7 11 -31
39 -52 64 -22 25 -72 86 -112 135 -89 110 -205 250 -238 288 -29 32 -64 33
-69 2 -2 -14 29 -58 96 -135 54 -63 112 -135 129 -160 17 -25 65 -80 106 -124
80 -84 110 -143 90 -175 -6 -10 -14 -38 -18 -63 -7 -43 -5 -47 44 -106 57 -68
62 -87 27 -96 -27 -7 -70 -82 -106 -184 -23 -65 -20 -84 18 -103 62 -31 93
-61 90 -87 -3 -26 -24 -39 -218 -140 -77 -40 -90 -57 -72 -96 6 -11 13 -50 16
-86 5 -51 12 -70 31 -89 23 -24 27 -24 61 -12 21 8 69 35 108 60 39 26 98 62
131 81 33 18 101 61 151 95 86 59 91 62 111 46 11 -9 35 -24 52 -33 25 -14 31
-23 31 -51 0 -39 -12 -47 -66 -47 -19 0 -44 -5 -57 -12 -12 -6 -29 -14 -37
-18 -8 -4 -41 -78 -74 -164 -58 -154 -58 -157 -40 -177 11 -12 37 -30 59 -41
22 -12 53 -32 69 -45 16 -13 32 -23 37 -21 32 11 116 92 140 135 17 28 36 56
43 62 21 18 174 37 187 24 6 -6 21 -54 34 -107 15 -65 30 -104 44 -117 21 -20
29 -76 13 -95 -5 -5 -19 -38 -32 -74 -12 -36 -29 -75 -37 -88 -15 -24 -73
-178 -73 -193 0 -5 5 -9 11 -9 6 0 25 -6 42 -14 18 -8 55 -22 82 -32 79 -28
86 -38 84 -114 -1 -49 4 -75 20 -108 12 -23 24 -56 28 -72 3 -17 10 -33 14
-36 5 -3 9 -12 9 -20 0 -9 13 -43 28 -77 15 -34 37 -88 47 -120 17 -50 23 -58
40 -53 134 34 132 34 169 -48 15 -32 34 -56 50 -64 16 -7 34 -30 47 -59 12
-26 31 -69 44 -94 13 -26 26 -61 30 -78 3 -17 11 -33 16 -36 5 -4 9 -24 9 -45
0 -36 -5 -43 -56 -82 -81 -62 -194 -136 -229 -149 -16 -6 -44 -18 -62 -25 -17
-8 -36 -14 -41 -14 -6 0 -16 -17 -22 -37 -7 -21 -28 -71 -47 -112 -39 -84 -51
-135 -33 -146 6 -4 44 -9 83 -11 76 -4 635 -5 772 -1 74 2 80 0 83 -19 2 -11
-27 -99 -64 -195 -76 -198 -82 -230 -44 -240 14 -4 39 -11 55 -16 17 -5 51 -5
80 0 34 6 60 5 82 -3 23 -8 49 -8 90 -1 32 5 116 15 186 21 71 6 143 17 160
25 18 7 56 23 86 35 53 21 136 81 145 105 2 6 -4 35 -14 64 -11 30 -23 108
-30 186 -6 74 -12 140 -15 147 -2 7 -9 65 -15 128 -6 63 -18 128 -26 144 -7
16 -14 38 -14 48 0 18 -79 176 -102 205 -5 6 -29 50 -52 97 -24 47 -48 91 -54
98 -13 17 -82 151 -82 161 0 8 -24 65 -61 143 -25 54 -24 72 6 86 19 8 35 8
62 0 21 -6 52 -11 68 -11 45 2 206 -10 237 -16 14 -4 29 -1 33 4 6 11 25 240
25 304 0 20 4 46 9 56 9 17 186 111 209 111 18 0 21 29 8 62 -8 18 -17 55 -21
83 -4 27 -13 62 -21 77 -8 15 -14 45 -14 68 0 23 -6 53 -14 68 -7 15 -16 52
-19 84 -3 31 -12 67 -20 80 -8 12 -17 55 -21 93 -18 204 -29 293 -41 325 -8
19 -16 58 -19 85 -21 187 -38 344 -45 430 -5 55 -16 114 -25 131 -8 16 -18 64
-22 105 -4 40 -12 85 -19 99 -7 14 -15 59 -18 101 -4 42 -9 84 -13 93 -6 17
-118 106 -133 106 -4 0 -28 16 -52 35 -24 19 -48 35 -53 35 -8 0 -57 30 -149
92 -20 14 -37 17 -61 13 -24 -5 -42 -2 -61 11 -22 14 -31 15 -46 6 -42 -27
-71 -4 -90 73 -6 28 -18 62 -26 78 -16 32 -17 32 41 6 25 -11 50 -18 55 -15 5
3 18 -10 30 -29 23 -40 54 -55 114 -55 62 0 109 28 121 70 6 19 18 42 28 52
25 25 23 54 -6 83 -13 13 -26 35 -30 49 -5 19 -13 26 -30 26 -13 0 -38 5 -55
11 -28 10 -40 8 -82 -11 -38 -18 -51 -31 -60 -57 -6 -19 -16 -32 -22 -30 -7 2
-26 41 -43 88 -39 107 -57 141 -101 190 -68 75 -158 100 -282 78z m110 -165
c18 -16 29 -15 61 8 14 10 25 8 61 -10 24 -12 52 -22 61 -22 24 0 76 -54 76
-79 0 -12 -5 -31 -12 -44 -6 -12 -14 -29 -18 -37 -8 -15 -10 -15 -168 -6 -34
2 -65 0 -68 -5 -3 -5 -21 -9 -41 -9 -20 0 -44 -7 -54 -16 -10 -9 -34 -16 -53
-16 -20 0 -36 -4 -36 -9 0 -5 -5 -9 -11 -9 -7 0 -21 -9 -33 -21 -12 -11 -43
-36 -69 -55 -46 -33 -50 -34 -73 -20 -13 9 -33 16 -44 16 -27 0 -35 22 -22 60
9 24 8 33 -5 46 -21 21 -9 43 37 66 19 10 38 24 42 33 5 8 17 15 26 15 9 0 23
9 30 20 7 12 23 20 40 20 19 0 30 7 37 22 14 31 58 45 95 31 21 -8 30 -8 30
-1 0 34 80 50 111 22z m506 -114 c27 0 34 -5 44 -35 7 -19 16 -35 21 -35 17 0
29 -40 18 -61 -9 -16 -14 -18 -26 -8 -16 13 -16 14 -32 -24 -15 -34 -54 -50
-105 -41 -28 4 -37 3 -33 -5 15 -24 146 -5 146 21 0 4 5 8 10 8 16 0 12 -26
-7 -42 -10 -9 -36 -21 -58 -28 -51 -15 -109 5 -127 45 -10 22 -8 28 10 48 27
29 28 57 2 64 -20 5 -26 28 -12 49 14 22 77 54 97 49 11 -2 34 -5 52 -5z
m-226 -1368 c1 -93 4 -120 8 -85 7 60 49 113 88 113 l23 0 0 -195 c0 -107 3
-195 8 -195 42 1 245 170 256 214 8 33 81 96 111 96 54 0 22 -78 -83 -198
l-55 -63 30 -32 c17 -18 55 -80 86 -139 63 -122 113 -191 186 -263 28 -27 51
-55 51 -62 0 -26 -61 -83 -89 -83 -44 0 -163 134 -237 267 -25 45 -30 49 -40
35 -14 -19 -17 -10 -28 72 -3 22 -9 43 -14 48 -6 6 -8 -51 -4 -145 5 -154 -2
-252 -18 -242 -4 3 -11 71 -14 152 -4 82 -9 176 -12 211 -6 68 -9 70 -76 51
-34 -9 -38 -13 -38 -42 1 -18 9 -66 19 -108 19 -82 16 -102 -20 -135 -55 -49
-84 -38 -97 37 -7 42 -8 40 -21 -50 -12 -87 -33 -137 -53 -125 -4 3 -8 16 -8
29 0 13 -11 35 -25 48 -22 20 -27 36 -35 113 -5 49 -10 158 -10 242 0 151 0
152 -22 152 -62 -1 -65 -5 -71 -103 -15 -204 -20 -258 -28 -263 -5 -3 -9 56
-9 130 0 84 -4 136 -10 136 -5 0 -10 15 -10 34 0 35 -17 50 -40 36 -15 -9 -10
-90 17 -273 l15 -108 -31 -39 -31 -39 0 -165 c0 -153 -8 -201 -25 -158 -4 9
-9 82 -12 162 -2 82 -10 167 -18 195 -11 39 -65 414 -65 453 0 5 -28 -19 -62
-52 -35 -34 -87 -80 -116 -103 l-53 -42 73 -54 c84 -62 168 -149 168 -173 0
-25 -65 -84 -91 -84 -15 1 -34 14 -51 36 -31 42 -125 118 -191 157 -44 26 -49
27 -75 13 -22 -11 -32 -28 -45 -73 -25 -90 -47 -139 -57 -123 -5 8 -10 -7 -15
-39 -9 -64 -26 -57 -18 8 5 44 3 49 -17 54 -21 5 -22 10 -18 56 4 44 3 50 -19
60 -31 14 -30 48 3 110 l25 49 -16 88 c-25 131 -56 199 -115 254 -49 45 -50
47 -39 79 12 34 60 71 93 71 10 0 39 -16 64 -37 44 -36 45 -36 223 -59 190
-24 257 -41 314 -79 l35 -24 0 77 c0 95 31 171 82 202 61 37 97 15 64 -40 -12
-22 -16 -54 -16 -139 0 -128 -11 -119 120 -93 l85 17 5 121 c4 87 9 126 20
139 20 25 72 55 82 49 4 -3 9 -67 9 -142z m-463 -1114 c7 -7 12 -23 12 -37 0
-26 -56 -125 -116 -203 -35 -47 -33 -54 12 -42 17 4 21 13 20 42 -1 31 3 38
22 40 12 2 22 -1 22 -7 0 -16 48 -68 67 -73 16 -4 18 5 18 105 l0 109 33 29
c39 35 60 36 97 7 34 -27 55 -75 55 -127 0 -53 -34 -142 -65 -171 -20 -19 -25
-34 -27 -79 -1 -51 -2 -52 -5 -13 -2 23 -8 40 -14 37 -5 -4 -9 0 -9 8 0 8 -13
28 -28 45 -27 29 -29 29 -40 11 -11 -17 -20 -19 -62 -13 -43 6 -50 4 -50 -10
0 -10 -4 -15 -9 -11 -6 3 -12 -14 -14 -37 l-4 -43 -1 49 -2 49 -57 -7 c-31 -4
-67 -9 -80 -12 -38 -10 -28 18 21 59 46 38 166 207 166 233 0 20 -30 30 -41
13 -6 -10 -9 -10 -9 -1 0 13 -36 17 -44 4 -3 -5 4 -21 14 -37 18 -27 18 -31 3
-47 -24 -27 -41 -22 -60 17 -21 43 -8 76 39 105 37 22 117 27 136 8z m450 0
c7 -7 12 -23 12 -37 0 -26 -56 -125 -116 -203 -35 -47 -33 -54 12 -42 17 4 21
13 20 42 -1 51 30 55 59 9 11 -17 33 -38 48 -45 56 -27 24 -65 -47 -56 -39 6
-46 4 -46 -10 0 -10 -4 -15 -9 -11 -6 3 -12 -14 -14 -37 l-4 -43 -1 49 -2 49
-57 -7 c-31 -4 -67 -9 -80 -12 -38 -10 -28 18 21 59 46 38 166 207 166 233 0
20 -30 30 -41 13 -6 -10 -9 -10 -9 -1 0 13 -36 17 -44 4 -3 -5 4 -21 14 -37
18 -27 18 -31 3 -47 -24 -27 -41 -22 -60 17 -21 43 -8 76 39 105 37 22 117 27
136 8z m211 -68 c-6 -16 -28 -49 -50 -74 -21 -24 -39 -47 -39 -50 0 -3 16 -6
35 -6 34 0 35 1 35 38 0 42 32 84 50 66 5 -5 13 -65 18 -134 9 -114 8 -127 -8
-144 -28 -29 -40 -11 -40 60 l0 65 -32 -3 c-25 -2 -34 -9 -39 -28 -7 -24 -7
-24 -8 -2 -1 12 -4 21 -8 21 -34 -5 -85 3 -89 15 -3 9 18 39 55 75 33 34 63
72 67 84 9 32 24 47 45 47 16 0 17 -4 8 -30z m-98 -1423 c32 -39 59 -77 59
-84 0 -21 -96 -113 -118 -113 -27 0 -32 17 -39 141 -9 165 1 171 98 56z"/>
<path d="M4287 7603 c-2 -4 7 -58 22 -119 l25 -112 55 -6 c51 -6 58 -4 100 26
25 17 70 52 99 77 61 51 59 57 -26 90 -69 27 -112 28 -119 1 -8 -29 -21 -25
-25 8 -4 27 -7 23 -22 -21 -9 -27 -26 -11 -26 24 0 24 -4 29 -24 29 -13 0 -31
3 -39 6 -8 3 -17 2 -20 -3z"/>
<path d="M4862 6598 c-20 -20 -15 -124 9 -169 24 -48 39 -46 57 7 30 88 -19
209 -66 162z"/>
<path d="M9277 8050 c-13 -128 -19 -170 -27 -170 -4 0 -12 28 -17 63 l-10 62
-2 -110 c-2 -174 -20 -166 -22 10 -1 100 -4 135 -9 105 -4 -25 -12 -58 -18
-73 -7 -16 -12 -46 -12 -67 0 -21 -4 -42 -10 -45 -6 -4 -10 10 -10 36 0 36 -2
40 -15 29 -8 -7 -15 -11 -16 -9 -1 2 -7 31 -14 64 -12 57 -12 52 -14 -117 -1
-177 -12 -229 -26 -121 -7 54 -23 112 -24 86 -2 -28 -21 -11 -22 20 -1 31 -2
31 -10 -8 -5 -22 -11 -80 -15 -129 -7 -96 -16 -98 -30 -6 l-8 55 -11 -60 c-8
-46 -15 -59 -27 -57 -11 2 -20 -10 -28 -35 -7 -21 -15 -42 -19 -48 -11 -18
-20 78 -21 240 l-2 160 -22 -135 c-11 -74 -25 -134 -31 -133 -5 1 -15 21 -20
45 -12 48 -19 40 -30 -36 -13 -86 -23 -46 -29 122 -10 255 -17 265 -45 68 -13
-92 -28 -169 -32 -172 -4 -2 -11 12 -14 33 -4 21 -8 43 -9 48 -2 6 -8 -33 -15
-85 -13 -98 -20 -124 -22 -74 l-1 29 -9 -30 c-4 -16 -11 -60 -14 -98 -4 -37
-10 -65 -14 -62 -5 2 -14 105 -22 227 -8 123 -15 205 -17 183 -4 -76 -13 -125
-23 -125 -5 0 -9 12 -9 26 0 14 -4 23 -9 20 -5 -3 -12 -55 -16 -114 -4 -60
-10 -114 -14 -121 -9 -14 -21 184 -21 342 0 61 -2 108 -4 106 -2 -2 -9 -89
-16 -194 -13 -213 -27 -287 -31 -165 l-2 75 -11 -90 c-15 -111 -23 -89 -31 90
-3 72 -8 168 -12 215 l-6 85 -14 -42 c-8 -24 -18 -43 -23 -43 -5 0 -11 30 -15
68 -3 37 -7 76 -8 87 -3 22 -13 -123 -23 -332 -4 -73 -10 -133 -13 -133 -4 0
-16 44 -26 98 -10 53 -19 93 -21 87 -1 -5 -6 -54 -9 -108 -6 -78 -10 -97 -21
-93 -11 4 -14 -6 -14 -44 0 -100 -37 -131 -72 -60 -10 19 -18 29 -18 23 0 -7
-7 -13 -14 -13 -9 0 -22 22 -33 57 -11 35 -24 58 -35 61 -10 2 -21 15 -24 29
-5 17 -10 21 -17 14 -18 -18 -27 -13 -27 17 l0 27 -20 -25 c-10 -14 -22 -22
-25 -18 -4 4 -17 75 -29 160 -13 84 -26 146 -29 138 -3 -8 -13 -50 -22 -92
-15 -73 -35 -105 -35 -56 0 37 -8 15 -19 -51 -11 -69 -18 -83 -30 -62 -12 19
-16 7 -31 -82 -7 -43 -17 -80 -21 -83 -5 -3 -9 -4 -10 -2 0 2 -13 93 -28 203
-18 124 -31 191 -34 175 -7 -26 -37 -254 -37 -277 0 -7 -4 -13 -10 -13 -5 0
-10 12 -10 28 -1 39 -15 11 -31 -61 -7 -32 -16 -60 -20 -63 -13 -7 -17 25 -25
181 l-8 150 -12 -115 c-7 -63 -13 -123 -13 -132 -1 -26 -19 -22 -23 5 -4 32
-20 27 -33 -12 -20 -62 -33 -48 -39 46 -4 48 -10 126 -14 173 l-7 84 -24 -157
c-24 -154 -41 -201 -41 -112 0 52 -13 59 -29 15 -21 -62 -34 -34 -47 104 -4
42 -9 75 -11 72 -2 -2 -11 -53 -19 -112 -26 -201 -30 -208 -59 -106 -25 90
-24 88 -39 66 -14 -18 -15 -18 -27 9 -17 36 -30 30 -50 -24 -28 -74 -43 -63
-84 61 -20 61 -39 110 -40 108 -2 -2 -13 -57 -24 -122 -11 -66 -25 -124 -31
-130 -7 -7 -10 -6 -10 2 0 22 -16 13 -27 -15 -9 -23 -11 -12 -13 72 l-2 100
-14 -70 c-32 -162 -36 -176 -47 -172 -7 3 -22 -5 -34 -16 -21 -19 -24 -19 -41
-4 -13 12 -28 15 -48 11 -21 -4 -34 -1 -43 10 -10 12 -17 13 -34 4 -18 -9 -24
-7 -42 16 -14 18 -27 25 -38 20 -13 -5 -17 0 -18 17 0 13 -3 18 -6 11 -7 -19
-33 5 -33 31 0 19 -1 19 -19 3 -17 -15 -19 -15 -25 -1 -3 9 -6 30 -6 46 0 41
-13 36 -38 -16 -22 -45 -39 -57 -47 -32 -2 6 -9 66 -16 132 l-12 120 -22 -122
c-11 -67 -24 -126 -29 -130 -4 -4 -13 0 -20 9 -10 13 -15 15 -24 6 -16 -16
-14 -69 3 -92 8 -11 15 -36 15 -56 0 -45 34 -286 58 -410 l19 -95 7 55 c4 30
10 84 14 119 4 36 12 66 19 68 7 3 22 -16 35 -41 26 -54 38 -58 38 -13 0 17 5
39 10 47 8 13 11 12 24 -5 15 -20 15 -20 16 1 0 27 26 51 33 32 3 -7 6 -2 6
11 1 17 5 22 18 17 11 -5 24 2 38 20 18 23 24 25 42 16 17 -9 24 -8 34 4 9 11
22 14 43 10 20 -4 35 -1 48 11 17 15 20 15 41 -4 12 -11 27 -19 34 -16 11 4
15 -10 47 -172 l14 -70 2 100 c2 84 4 95 13 73 11 -29 27 -38 27 -16 0 8 3 9
10 2 6 -6 20 -64 31 -130 11 -65 22 -120 24 -122 1 -2 20 47 40 108 41 124 56
135 84 61 19 -53 33 -60 50 -25 9 22 14 24 26 14 19 -16 19 -16 35 45 15 56
29 89 36 82 3 -3 14 -67 24 -142 11 -76 21 -140 24 -142 2 -2 6 31 10 73 13
138 26 166 47 104 16 -44 29 -37 29 15 0 89 17 42 41 -112 l24 -157 7 84 c4
47 10 125 14 173 6 94 19 108 39 46 13 -39 29 -44 33 -11 4 26 22 30 23 5 0
-10 6 -70 13 -133 l12 -115 8 150 c8 156 12 188 25 181 4 -3 13 -31 20 -63 16
-72 30 -100 31 -60 0 15 5 27 10 27 6 0 10 -6 10 -13 0 -23 30 -251 37 -277 3
-16 16 51 34 175 15 110 28 201 28 203 1 2 5 1 10 -2 4 -3 14 -40 21 -83 15
-89 19 -101 31 -82 12 21 19 7 30 -62 11 -66 19 -88 19 -51 0 49 20 17 35 -55
9 -43 19 -85 22 -93 3 -8 16 54 29 138 12 85 25 156 29 160 3 4 15 -4 25 -18
l20 -25 0 28 c0 29 9 34 27 16 7 -7 12 -3 17 14 3 14 14 27 24 29 11 3 24 26
35 61 11 35 24 57 33 57 7 0 14 -6 14 -12 0 -7 8 3 18 22 21 42 53 47 63 10 4
-14 7 -46 8 -72 1 -36 4 -46 15 -42 11 4 15 -15 21 -93 3 -54 8 -102 9 -108 2
-5 11 34 21 88 10 53 22 97 26 97 3 0 9 -60 13 -132 10 -210 20 -355 23 -333
1 11 5 50 8 88 4 37 10 67 15 67 5 0 15 -19 23 -42 l14 -43 6 85 c4 47 9 144
12 215 8 179 16 201 31 90 l11 -90 2 75 c4 122 18 48 31 -165 7 -104 14 -192
16 -194 2 -2 4 45 4 106 0 158 12 356 21 342 4 -7 10 -61 14 -121 4 -59 11
-111 16 -114 5 -3 9 6 9 20 0 14 4 26 9 26 10 0 19 -49 23 -125 2 -22 9 60 17
183 8 122 17 225 22 227 4 3 10 -25 14 -62 3 -38 10 -81 14 -98 l9 -30 1 29
c2 50 9 24 22 -74 7 -52 13 -90 15 -85 1 6 5 27 9 48 3 21 10 35 14 33 4 -3
19 -80 32 -172 28 -197 35 -187 45 69 6 167 16 207 29 121 11 -76 18 -84 30
-34 6 25 15 45 20 45 6 0 20 -61 31 -135 l22 -135 2 160 c1 162 10 258 21 240
4 -5 12 -27 19 -48 8 -25 17 -37 28 -35 12 2 19 -11 27 -57 l11 -60 8 55 c14
92 23 90 30 -6 4 -49 10 -107 15 -129 8 -39 9 -39 10 -7 1 30 20 47 22 20 1
-27 17 31 24 85 14 107 25 57 26 -115 1 -139 3 -164 11 -128 16 74 16 74 33
60 13 -11 15 -7 15 29 0 26 4 40 10 36 6 -3 10 -24 10 -45 0 -21 5 -51 12 -67
6 -15 14 -48 18 -73 5 -30 8 5 9 105 2 176 20 184 22 10 l2 -110 10 63 c5 34
13 62 17 62 4 0 13 -46 19 -102 7 -57 13 -112 15 -123 1 -11 6 41 11 115 8
141 17 148 31 24 l8 -69 13 48 c23 76 32 63 49 -71 4 -29 10 -50 14 -45 4 4
15 83 25 176 10 92 22 167 25 167 8 0 16 -44 26 -145 9 -94 20 -110 27 -40 3
32 11 63 16 68 8 8 11 6 11 -6 0 -9 5 -17 10 -17 6 0 10 24 10 54 0 98 19 146
36 94 7 -20 9 -16 18 24 6 27 16 49 21 50 6 2 17 -54 25 -132 l16 -135 17 130
c24 176 28 196 38 190 5 -3 11 -28 15 -55 8 -61 24 -66 24 -7 0 23 5 49 10 57
9 13 12 13 24 -3 16 -21 22 -15 31 36 7 38 26 60 33 39 2 -7 12 -12 22 -12 13
0 24 -14 36 -46 20 -53 30 -45 40 34 3 29 13 59 20 67 10 10 14 44 14 125 0
81 -4 115 -14 125 -7 8 -17 38 -20 67 -10 79 -20 87 -40 34 -12 -32 -23 -46
-36 -46 -10 0 -20 -5 -22 -12 -7 -21 -26 1 -33 39 -9 51 -15 57 -31 36 -12
-16 -15 -16 -24 -3 -5 8 -10 34 -10 58 0 58 -16 53 -24 -8 -4 -27 -10 -52 -15
-55 -10 -6 -14 14 -38 190 l-17 130 -16 -135 c-8 -76 -19 -134 -25 -133 -5 1
-15 24 -20 50 -9 41 -12 45 -19 26 -17 -53 -36 -5 -36 93 0 30 -4 54 -10 54
-5 0 -10 -8 -10 -17 0 -12 -3 -14 -11 -6 -5 5 -13 36 -16 68 -7 70 -18 54 -27
-40 -10 -101 -18 -145 -26 -145 -3 0 -15 75 -25 168 -10 92 -21 171 -25 175
-4 5 -10 -16 -14 -45 -17 -134 -26 -147 -49 -70 l-13 47 -8 -69 c-12 -103 -24
-125 -27 -46 -1 36 -4 97 -8 135 l-6 70 -8 -75z"/>
<path d="M3137 7970 c-13 -128 -19 -170 -27 -170 -4 0 -12 28 -17 63 l-10 62
-2 -110 c-2 -174 -20 -166 -22 10 -1 100 -4 135 -9 105 -4 -25 -12 -58 -18
-73 -7 -16 -12 -46 -12 -67 0 -21 -4 -42 -10 -45 -6 -4 -10 10 -10 36 0 36 -2
40 -15 29 -8 -7 -15 -11 -16 -9 -1 2 -7 31 -14 64 -12 57 -12 52 -14 -117 -1
-177 -12 -229 -26 -121 -7 54 -23 112 -24 86 -2 -28 -21 -11 -22 20 -1 31 -2
31 -10 -8 -5 -22 -11 -80 -15 -129 -7 -96 -16 -98 -30 -6 l-8 55 -11 -60 c-8
-46 -15 -59 -27 -57 -11 2 -20 -10 -28 -35 -7 -21 -15 -42 -19 -48 -11 -18
-20 78 -21 240 l-2 160 -22 -135 c-11 -74 -25 -134 -31 -133 -5 1 -15 21 -20
45 -12 48 -19 40 -30 -36 -13 -86 -23 -46 -29 122 -10 255 -17 265 -45 68 -13
-92 -28 -169 -32 -172 -4 -2 -11 12 -14 33 -4 21 -8 43 -9 48 -2 6 -8 -33 -15
-85 -13 -98 -20 -124 -22 -74 l-1 29 -9 -30 c-4 -16 -11 -60 -14 -98 -4 -37
-10 -65 -14 -62 -5 2 -14 105 -22 227 -8 123 -15 205 -17 183 -4 -76 -13 -125
-23 -125 -5 0 -9 12 -9 26 0 14 -4 23 -9 20 -5 -3 -12 -55 -16 -114 -4 -60
-10 -114 -14 -121 -9 -14 -21 184 -21 342 0 61 -2 108 -4 106 -2 -2 -9 -89
-16 -194 -13 -213 -27 -287 -31 -165 l-2 75 -11 -90 c-15 -111 -23 -89 -31 90
-3 72 -8 168 -12 215 l-6 85 -14 -42 c-8 -24 -18 -43 -23 -43 -5 0 -11 30 -15
68 -3 37 -7 76 -8 87 -3 22 -13 -123 -23 -332 -4 -73 -10 -133 -13 -133 -4 0
-16 44 -26 98 -10 53 -19 93 -21 87 -1 -5 -6 -54 -9 -108 -6 -78 -10 -97 -21
-93 -11 4 -14 -6 -14 -44 0 -100 -37 -131 -72 -60 -10 19 -18 29 -18 23 0 -7
-7 -13 -14 -13 -9 0 -22 22 -33 57 -11 35 -24 58 -35 61 -10 2 -21 15 -24 29
-5 17 -10 21 -17 14 -18 -18 -27 -13 -27 17 l0 27 -20 -25 c-10 -14 -22 -22
-25 -18 -4 4 -17 75 -29 160 -13 84 -26 146 -29 138 -3 -8 -13 -50 -22 -92
-15 -73 -35 -105 -35 -56 0 37 -8 15 -19 -51 -11 -69 -18 -83 -30 -62 -12 19
-16 7 -31 -82 -7 -43 -17 -80 -21 -83 -5 -3 -9 -4 -10 -2 0 2 -13 93 -28 203
-18 124 -31 191 -34 175 -7 -26 -37 -254 -37 -277 0 -7 -4 -13 -10 -13 -5 0
-10 12 -10 28 -1 39 -15 11 -31 -61 -7 -32 -16 -60 -20 -63 -13 -7 -17 25 -25
181 l-8 150 -12 -115 c-7 -63 -13 -123 -13 -132 -1 -26 -19 -22 -23 5 -4 32
-20 27 -33 -12 -20 -62 -33 -48 -39 46 -4 48 -10 126 -14 173 l-7 84 -24 -157
c-24 -154 -41 -201 -41 -112 0 52 -13 59 -29 15 -21 -62 -34 -34 -47 104 -4
42 -9 75 -11 72 -2 -2 -11 -53 -19 -112 -26 -201 -30 -208 -59 -106 -25 90
-24 88 -39 66 -14 -18 -15 -18 -27 9 -17 36 -30 30 -50 -24 -28 -74 -43 -63
-84 61 -20 61 -39 110 -40 108 -2 -2 -13 -57 -24 -122 -11 -66 -25 -124 -31
-130 -7 -7 -10 -6 -10 2 0 22 -16 13 -27 -15 -9 -23 -11 -12 -13 72 l-2 100
-14 -70 c-32 -162 -36 -176 -47 -172 -7 3 -22 -5 -34 -16 -21 -19 -24 -19 -41
-4 -13 12 -28 15 -48 11 -21 -4 -34 -1 -43 10 -10 12 -17 13 -34 4 -18 -9 -24
-7 -42 16 -14 18 -27 25 -38 20 -13 -5 -17 0 -18 17 0 13 -3 18 -6 11 -7 -19
-33 5 -33 31 0 19 -1 19 -19 3 -17 -15 -19 -15 -25 -1 -3 9 -6 30 -6 46 0 42
-11 36 -43 -24 -26 -51 -27 -56 -27 -227 0 -171 1 -176 28 -227 15 -29 30 -53
35 -53 4 0 7 15 7 33 0 17 5 39 10 47 8 13 11 12 24 -5 15 -20 15 -20 16 1 0
27 26 51 33 32 3 -7 6 -2 6 11 1 17 5 22 18 17 11 -5 24 2 38 20 18 23 24 25
42 16 17 -9 24 -8 34 4 9 11 22 14 43 10 20 -4 35 -1 48 11 17 15 20 15 41 -4
12 -11 27 -19 34 -16 11 4 15 -10 47 -172 l14 -70 2 100 c2 84 4 95 13 73 11
-29 27 -38 27 -16 0 8 3 9 10 2 6 -6 20 -64 31 -130 11 -65 22 -120 24 -122 1
-2 20 47 40 108 41 124 56 135 84 61 19 -53 33 -60 50 -25 9 22 14 24 26 14
19 -16 19 -16 35 45 15 56 29 89 36 82 3 -3 14 -67 24 -142 11 -76 21 -140 24
-142 2 -2 6 31 10 73 13 138 26 166 47 104 16 -44 29 -37 29 15 0 89 17 42 41
-112 l24 -157 7 84 c4 47 10 125 14 173 6 94 19 108 39 46 13 -39 29 -44 33
-11 4 26 22 30 23 5 0 -10 6 -70 13 -133 l12 -115 8 150 c8 156 12 188 25 181
4 -3 13 -31 20 -63 16 -72 30 -100 31 -60 0 15 5 27 10 27 6 0 10 -6 10 -13 0
-23 30 -251 37 -277 3 -16 16 51 34 175 15 110 28 201 28 203 1 2 5 1 10 -2 4
-3 14 -40 21 -83 15 -89 19 -101 31 -82 12 21 19 7 30 -62 11 -66 19 -88 19
-51 0 49 20 17 35 -55 9 -43 19 -85 22 -93 3 -8 16 54 29 138 12 85 25 156 29
160 3 4 15 -4 25 -18 l20 -25 0 28 c0 29 9 34 27 16 7 -7 12 -3 17 14 3 14 14
27 24 29 11 3 24 26 35 61 11 35 24 57 33 57 7 0 14 -6 14 -12 0 -7 8 3 18 22
21 42 53 47 63 10 4 -14 7 -46 8 -72 1 -36 4 -46 15 -42 11 4 15 -15 21 -93 3
-54 8 -102 9 -108 2 -5 11 34 21 88 10 53 22 97 26 97 3 0 9 -60 13 -132 10
-210 20 -355 23 -333 1 11 5 50 8 88 4 37 10 67 15 67 5 0 15 -19 23 -42 l14
-43 6 85 c4 47 9 144 12 215 8 179 16 201 31 90 l11 -90 2 75 c4 122 18 48 31
-165 7 -104 14 -192 16 -194 2 -2 4 45 4 106 0 158 12 356 21 342 4 -7 10 -61
14 -121 4 -59 11 -111 16 -114 5 -3 9 6 9 20 0 14 4 26 9 26 10 0 19 -49 23
-125 2 -22 9 60 17 183 8 122 17 225 22 227 4 3 10 -25 14 -62 3 -38 10 -81
14 -98 l9 -30 1 29 c2 50 9 24 22 -74 7 -52 13 -90 15 -85 1 6 5 27 9 48 3 21
10 35 14 33 4 -3 19 -80 32 -172 28 -197 35 -187 45 69 6 167 16 207 29 121
11 -76 18 -84 30 -34 6 25 15 45 20 45 6 0 20 -61 31 -135 l22 -135 2 160 c1
162 10 258 21 240 4 -5 12 -27 19 -48 8 -25 17 -37 28 -35 12 2 19 -11 27 -57
l11 -60 8 55 c14 92 23 90 30 -6 4 -49 10 -107 15 -129 8 -39 9 -39 10 -7 1
30 20 47 22 20 1 -27 17 31 24 85 14 107 25 57 26 -115 1 -139 3 -164 11 -128
16 74 16 74 33 60 13 -11 15 -7 15 29 0 26 4 40 10 36 6 -3 10 -24 10 -45 0
-21 5 -51 12 -67 6 -15 14 -48 18 -73 5 -30 8 5 9 105 2 176 20 184 22 10 l2
-110 10 63 c5 34 13 62 17 62 4 0 13 -46 19 -102 7 -57 13 -112 15 -123 1 -11
6 41 11 115 8 141 17 148 31 24 l8 -69 13 48 c23 76 32 63 49 -71 4 -29 10
-50 14 -45 4 4 15 83 25 176 10 92 22 167 25 167 8 0 16 -44 26 -145 9 -94 20
-110 27 -40 3 32 11 63 16 68 8 8 11 6 11 -6 0 -9 5 -17 10 -17 6 0 10 24 10
54 0 98 19 146 36 94 7 -20 9 -16 18 24 6 27 16 49 21 50 6 2 17 -54 25 -132
l16 -135 16 120 c15 110 15 121 1 137 -9 10 -23 18 -31 18 -8 0 -35 16 -58 36
-51 41 -55 67 -25 136 10 24 24 61 31 83 29 93 79 195 100 205 8 4 29 15 47
24 17 9 41 16 52 16 12 0 21 4 21 10 0 23 -93 0 -148 -37 -32 -21 -59 -41 -62
-44 -3 -4 -32 -21 -65 -38 -80 -42 -91 -50 -151 -93 -71 -51 -138 -60 -179
-26 -23 20 -32 41 -45 104 -10 43 -23 93 -31 111 -18 43 -2 72 58 104 26 13
69 39 97 57 28 17 57 32 66 32 24 1 74 46 65 60 -4 7 -27 21 -50 31 -24 10
-46 27 -50 36 -6 14 -10 9 -20 -22 l-13 -40 -2 65 c-1 36 -5 97 -9 135 l-6 70
-8 -75z"/>
<path d="M2180 3915 c0 -41 -3 -75 -6 -75 -4 0 -24 5 -45 11 -54 17 -120 -3
-159 -47 -73 -84 -62 -235 23 -298 39 -29 113 -28 155 3 32 22 32 22 32 2 0
-19 6 -21 55 -21 l55 0 0 250 0 250 -55 0 -55 0 0 -75z m0 -230 c0 -104 -6
-115 -69 -115 -50 0 -71 30 -71 100 0 80 26 110 95 110 l45 0 0 -95z"/>
<path d="M8450 3740 l0 -250 49 0 c28 0 52 4 55 9 3 5 25 2 48 -6 122 -42 229
60 215 205 -9 100 -47 149 -124 159 -28 3 -51 -2 -85 -20 l-48 -24 0 88 0 89
-55 0 -55 0 0 -250z m234 8 c22 -36 27 -76 16 -118 -13 -49 -42 -70 -97 -70
l-43 0 0 99 c0 110 -2 108 72 110 29 1 41 -4 52 -21z"/>
<path d="M8900 3740 l0 -250 55 0 55 0 0 250 0 250 -55 0 -55 0 0 -250z"/>
<path d="M539 3893 c16 -43 55 -151 87 -240 l59 -163 67 0 c63 0 66 1 76 28 5
15 44 120 86 235 42 114 76 209 76 212 0 3 -27 5 -59 5 l-59 0 -18 -52 c-52
-159 -97 -278 -104 -271 -4 4 -32 79 -61 165 l-54 158 -62 0 -62 0 28 -77z"/>
<path d="M3510 3730 l0 -240 60 0 60 0 0 78 c1 69 13 112 32 112 3 0 38 -43
77 -95 l71 -95 71 0 c53 0 68 3 63 13 -6 9 -103 138 -176 234 -6 7 19 44 74
110 46 54 87 104 92 111 5 9 -9 12 -58 12 l-66 0 -81 -102 c-44 -57 -85 -104
-90 -106 -5 -2 -9 43 -9 102 l0 106 -60 0 -60 0 0 -240z"/>
<path d="M7550 3731 l0 -241 60 0 60 0 0 79 0 78 74 5 c133 9 196 63 196 168
0 43 -5 64 -21 84 -40 51 -72 60 -226 64 l-143 4 0 -241z m248 133 c29 -20 30
-76 2 -104 -15 -15 -33 -20 -75 -20 l-55 0 0 70 0 70 53 0 c31 0 61 -6 75 -16z"/>
<path d="M1598 3845 c-80 -26 -127 -109 -114 -204 12 -85 66 -142 147 -155
126 -20 226 45 237 153 9 95 -21 161 -88 196 -43 22 -128 27 -182 10z m131
-84 c41 -41 35 -167 -9 -191 -35 -19 -77 -12 -99 16 -16 20 -21 41 -21 84 0
74 25 110 76 110 20 0 42 -8 53 -19z"/>
<path d="M2514 3850 c-85 -20 -133 -77 -141 -168 -10 -124 70 -196 216 -197
42 0 93 6 114 13 35 13 37 16 37 57 l0 44 -42 -19 c-51 -23 -128 -26 -167 -6
-22 12 -51 52 -51 71 0 3 61 5 135 5 l135 0 0 33 c0 129 -100 200 -236 167z"/>
<path d="M3019 3850 c-14 -4 -38 -15 -52 -25 -26 -17 -27 -17 -27 4 0 19 -6
21 -55 21 l-55 0 0 -180 0 -180 55 0 55 0 0 130 c0 144 3 150 72 150 54 0 58
-11 58 -152 l0 -128 61 0 62 0 -5 144 c-5 161 -14 187 -73 212 -38 15 -57 16
-96 4z"/>
<path d="M5013 3849 c-23 -5 -56 -23 -72 -38 -26 -24 -31 -37 -31 -74 0 -62
33 -89 135 -112 68 -15 76 -19 73 -38 -3 -19 -10 -22 -59 -25 -38 -2 -73 4
-108 17 l-51 19 0 -43 c0 -41 2 -44 38 -56 59 -20 180 -17 227 6 55 27 81 81
65 130 -14 42 -45 60 -131 78 -66 13 -98 39 -69 57 25 16 102 11 148 -10 l42
-19 0 45 c0 39 -3 46 -26 55 -41 15 -134 19 -181 8z"/>
<path d="M5400 3855 c-8 -2 -32 -6 -52 -10 -37 -6 -38 -7 -38 -50 0 -25 2 -45
4 -45 2 0 20 7 39 15 52 22 129 19 158 -4 13 -11 21 -22 17 -26 -3 -4 -38 -11
-77 -15 -92 -12 -136 -31 -155 -69 -63 -120 76 -217 201 -140 l33 21 0 -21 c0
-19 6 -21 55 -21 l55 0 -1 128 c0 154 -11 190 -60 215 -35 16 -146 30 -179 22z"/>
<path d="M5896 3835 c-44 -23 -46 -24 -46 -5 0 18 -7 20 -55 20 l-55 0 0 -180
0 -180 55 0 55 0 0 130 c0 143 3 150 67 150 49 0 53 -13 53 -152 l0 -128 60 0
60 0 0 130 c0 143 3 150 67 150 49 0 53 -13 53 -152 l0 -128 55 0 55 0 0 143
c0 160 -7 183 -60 210 -43 22 -90 16 -144 -19 l-38 -26 -22 21 c-23 22 -68 41
-95 41 -10 0 -39 -11 -65 -25z"/>
<path d="M6518 3845 c-80 -26 -127 -109 -114 -204 12 -85 66 -142 147 -155
126 -20 226 45 237 153 9 95 -21 161 -88 196 -43 22 -128 27 -182 10z m131
-84 c41 -41 35 -167 -9 -191 -35 -19 -77 -12 -99 16 -16 20 -21 41 -21 84 0
74 25 110 76 110 20 0 42 -8 53 -19z"/>
<path d="M7059 3850 c-14 -4 -38 -15 -52 -25 -26 -17 -27 -17 -27 4 0 19 -6
21 -55 21 l-55 0 0 -180 0 -180 55 0 55 0 0 130 c0 144 3 150 72 150 54 0 58
-11 58 -152 l0 -128 61 0 62 0 -5 144 c-5 161 -14 187 -73 212 -38 15 -57 16
-96 4z"/>
<path d="M8110 3855 c-8 -2 -32 -6 -52 -10 -37 -6 -38 -7 -38 -50 0 -25 2 -45
4 -45 2 0 20 7 39 15 52 22 129 19 158 -4 13 -11 21 -22 17 -26 -3 -4 -38 -11
-77 -15 -92 -12 -136 -31 -155 -69 -63 -120 76 -217 201 -140 l33 21 0 -21 c0
-19 6 -21 55 -21 l55 0 -1 128 c0 154 -11 190 -60 215 -35 16 -146 30 -179 22z"/>
<path d="M9208 3845 c-80 -26 -127 -109 -114 -204 12 -85 66 -142 147 -155
126 -20 226 45 237 153 9 95 -21 161 -88 196 -43 22 -128 27 -182 10z m131
-84 c41 -41 35 -167 -9 -191 -35 -19 -77 -12 -99 16 -16 20 -21 41 -21 84 0
74 25 110 76 110 20 0 42 -8 53 -19z"/>
<path d="M1042 3706 c5 -162 13 -187 75 -213 43 -17 93 -11 141 19 l32 20 0
-21 c0 -19 6 -21 55 -21 l55 0 0 180 0 180 -55 0 -55 0 0 -130 c0 -118 -2
-130 -19 -140 -33 -17 -89 -12 -101 9 -5 11 -10 74 -10 140 l0 121 -61 0 -62
0 5 -144z"/>
<path d="M4002 3706 c5 -162 13 -187 75 -213 43 -17 93 -11 141 19 l32 20 0
-21 c0 -19 6 -21 55 -21 l55 0 0 180 0 180 -55 0 -55 0 0 -130 c0 -118 -2
-130 -19 -140 -33 -17 -89 -12 -101 9 -5 11 -10 74 -10 140 l0 121 -61 0 -62
0 5 -144z"/>
<path d="M4462 3706 c5 -162 13 -187 75 -213 43 -17 93 -11 141 19 l32 20 0
-21 c0 -19 6 -21 55 -21 l55 0 0 180 0 180 -55 0 -55 0 0 -130 c0 -118 -2
-130 -19 -140 -33 -17 -89 -12 -101 9 -5 11 -10 74 -10 140 l0 121 -61 0 -62
0 5 -144z"/>
<path d="M8473 2488 c-120 -170 -222 -308 -227 -308 -5 0 -36 -25 -68 -56 -32
-31 -61 -54 -63 -52 -2 2 7 33 21 68 47 114 19 180 -76 180 -70 0 -135 -40
-249 -152 -93 -92 -128 -118 -115 -83 4 8 1 54 -6 102 -12 84 -12 88 11 129
19 36 21 45 9 59 -20 24 -53 14 -70 -21 -19 -40 -129 -174 -143 -174 -5 0 -49
-38 -97 -84 -87 -84 -139 -120 -165 -114 -13 3 152 217 231 298 19 20 34 38
34 42 0 3 -30 4 -67 2 l-68 -3 -68 -83 c-99 -120 -194 -214 -243 -240 -78 -41
-70 -3 22 108 32 38 88 103 126 145 l67 76 -71 -2 -72 -3 -41 -50 c-52 -65
-257 -258 -296 -278 -67 -34 -57 -7 47 121 58 72 121 146 140 165 19 20 34 38
34 42 0 3 -30 4 -67 2 l-68 -3 -68 -83 c-99 -120 -194 -214 -243 -240 -78 -41
-70 -3 22 108 32 38 88 103 126 145 l67 76 -71 -2 -72 -3 -88 -108 c-87 -107
-128 -174 -128 -208 0 -34 29 -74 59 -81 42 -9 106 11 145 45 18 17 36 30 39
30 3 0 7 -12 9 -27 2 -19 12 -32 32 -42 37 -17 84 -4 151 43 l49 35 17 -38
c13 -29 25 -41 47 -46 43 -9 106 11 146 45 41 36 46 37 46 6 0 -56 64 -68 143
-27 42 22 57 26 57 16 0 -27 61 -49 130 -49 80 0 138 26 160 70 9 17 21 29 28
26 6 -2 26 4 43 12 18 9 33 16 34 16 2 0 6 -15 9 -33 10 -54 48 -82 109 -81
56 0 106 21 150 62 21 20 36 26 62 24 18 -2 43 2 54 8 19 10 20 8 15 -19 -5
-24 -1 -35 21 -57 23 -23 32 -25 67 -20 48 8 80 24 141 70 l45 34 6 -33 c8
-38 47 -75 81 -75 12 0 44 11 71 25 l49 25 17 -23 c27 -35 101 -30 167 12 45
29 191 175 191 190 0 4 -9 12 -19 18 -18 11 -27 5 -88 -59 -96 -100 -173 -153
-173 -119 0 5 60 80 133 168 l134 159 -66 -4 c-36 -2 -70 -8 -75 -12 -5 -5
-19 -2 -33 7 -33 22 -125 12 -186 -18 -25 -13 -97 -74 -160 -136 -116 -113
-195 -173 -230 -173 -18 0 -18 1 2 35 11 19 142 201 291 405 148 203 270 371
270 372 0 2 -27 3 -60 3 l-60 0 -217 -307z m-373 -268 c0 -29 -8 -48 -36 -81
-21 -25 -34 -50 -31 -60 6 -23 -94 -91 -137 -93 -29 -1 -31 1 -30 31 3 55 118
201 188 237 38 19 46 13 46 -34z m695 40 c22 -35 -177 -252 -252 -275 -19 -5
-23 -3 -23 16 0 52 122 193 210 243 50 29 56 30 65 16z m-1196 -148 c-9 -46
-20 -65 -54 -99 -42 -43 -77 -53 -119 -37 -25 10 -19 34 9 34 14 0 34 9 45 20
17 17 18 24 10 41 -12 22 2 49 25 49 7 0 30 21 51 47 35 43 39 45 42 25 2 -12
-2 -48 -9 -80z"/>
<path d="M2370 2680 c-233 -60 -412 -224 -427 -391 -7 -71 0 -99 32 -137 l25
-29 -48 -66 c-43 -61 -52 -67 -112 -87 -230 -76 -425 -229 -438 -346 -6 -60
15 -84 74 -84 115 0 268 111 457 334 l68 80 117 38 c124 41 149 56 138 83 -7
19 -5 19 -111 -18 -38 -14 -71 -24 -73 -22 -1 1 2 14 9 28 9 19 21 27 53 31
116 18 264 132 320 248 33 68 47 175 25 189 -11 7 -9 13 11 29 48 39 125 73
180 79 50 6 55 8 55 31 l0 25 -140 2 c-111 2 -156 -2 -215 -17z m90 -58 c-132
-90 -252 -213 -365 -370 -53 -75 -61 -81 -72 -66 -16 22 -17 83 -2 121 31 81
165 206 293 270 101 52 200 82 146 45z m-49 -228 c-35 -76 -132 -179 -200
-213 -23 -12 -44 -21 -46 -19 -5 6 155 223 213 288 55 63 57 64 60 37 2 -16
-10 -56 -27 -93z m-665 -598 c-125 -136 -240 -218 -283 -202 -34 13 55 113
172 193 74 50 188 114 193 108 3 -2 -34 -47 -82 -99z"/>
<path d="M6490 2680 c-233 -60 -412 -224 -427 -391 -7 -71 0 -99 32 -137 l25
-29 -48 -66 c-43 -61 -52 -67 -112 -87 -230 -76 -425 -229 -438 -346 -6 -60
15 -84 74 -84 115 0 268 111 457 334 l68 80 117 38 c124 41 149 56 138 83 -7
19 -5 19 -111 -18 -38 -14 -71 -24 -73 -22 -1 1 2 14 9 28 9 19 21 27 53 31
116 18 264 132 320 248 33 68 47 175 25 189 -11 7 -9 13 11 29 48 39 125 73
180 79 50 6 55 8 55 31 l0 25 -140 2 c-111 2 -156 -2 -215 -17z m90 -58 c-132
-90 -252 -213 -365 -370 -53 -75 -61 -81 -72 -66 -16 22 -17 83 -2 121 31 81
165 206 293 270 101 52 200 82 146 45z m-49 -228 c-35 -76 -132 -179 -200
-213 -23 -12 -44 -21 -46 -19 -5 6 155 223 213 288 55 63 57 64 60 37 2 -16
-10 -56 -27 -93z m-665 -598 c-125 -136 -240 -218 -283 -202 -34 13 55 113
172 193 74 50 188 114 193 108 3 -2 -34 -47 -82 -99z"/>
<path d="M4608 2563 l-57 -4 -47 -69 c-43 -63 -51 -70 -81 -70 -40 0 -56 -26
-28 -46 18 -13 17 -15 -9 -51 -15 -21 -44 -62 -64 -90 -20 -29 -40 -53 -44
-53 -3 0 -37 -32 -75 -71 -96 -101 -173 -154 -173 -120 0 5 60 80 133 168
l134 159 -66 -4 c-36 -2 -70 -8 -75 -12 -5 -5 -19 -2 -33 7 -33 22 -125 12
-189 -20 -32 -16 -92 -68 -164 -142 -114 -115 -186 -170 -215 -163 -10 2 4 25
49 78 77 91 106 143 106 192 0 87 -100 92 -207 10 l-33 -24 0 35 c0 38 -12 47
-63 47 -26 0 -44 -12 -99 -70 -37 -38 -70 -70 -74 -70 -4 0 -34 -25 -66 -56
-32 -31 -61 -54 -63 -52 -2 2 7 33 21 68 46 114 19 180 -75 180 -71 -1 -119
-29 -246 -145 -64 -58 -119 -105 -121 -103 -2 2 8 33 22 68 47 114 19 180 -75
180 -129 0 -292 -165 -295 -297 -1 -34 5 -48 27 -70 49 -50 157 -33 230 35 21
20 36 26 65 23 26 -1 46 4 64 18 14 12 28 21 30 21 1 0 3 -16 4 -36 0 -24 9
-43 28 -62 48 -49 156 -32 229 36 21 20 36 26 66 23 31 -2 46 5 87 37 27 21
58 49 68 61 11 11 24 21 30 21 5 0 21 12 34 28 23 26 -28 -51 -116 -176 l-44
-63 28 8 c16 4 47 8 69 8 36 0 44 5 84 55 107 134 263 275 297 268 12 -2 1
-21 -43 -73 -116 -139 -132 -168 -119 -220 5 -18 17 -27 46 -35 59 -16 117 3
192 62 l36 28 7 -30 c8 -34 48 -70 80 -70 12 0 44 11 71 25 l49 25 17 -23 c14
-18 26 -22 67 -21 40 0 61 8 105 37 55 37 56 37 56 13 0 -34 27 -51 79 -50 53
1 96 21 150 70 l39 34 6 -34 c8 -39 47 -76 81 -76 12 0 44 11 71 25 l49 25 17
-23 c14 -18 26 -22 66 -21 64 1 129 41 216 135 35 38 67 69 72 69 5 0 19 12
32 28 24 27 -27 -49 -114 -174 l-46 -65 28 8 c16 4 47 8 69 8 36 0 44 5 84 55
107 134 263 275 297 268 12 -2 1 -21 -43 -73 -116 -139 -132 -168 -119 -220 5
-18 17 -27 46 -35 80 -22 168 25 276 146 37 41 65 76 63 77 -2 1 -12 9 -22 16
-16 13 -25 6 -88 -63 -72 -77 -146 -130 -174 -124 -10 2 4 25 49 78 77 91 106
143 106 192 0 87 -100 92 -207 10 l-33 -24 0 35 c0 38 -12 47 -63 47 -26 0
-44 -12 -99 -70 -37 -38 -69 -70 -72 -70 -2 0 -35 -32 -73 -71 -96 -101 -173
-154 -173 -120 0 5 60 80 133 168 l134 159 -66 -4 c-36 -2 -70 -8 -75 -12 -5
-5 -19 -2 -33 7 -33 22 -125 12 -189 -20 -31 -16 -95 -70 -165 -139 -63 -63
-128 -124 -145 -136 -36 -24 -84 -39 -84 -24 0 9 78 119 210 295 l65 86 81 1
c56 0 83 4 86 13 11 28 -4 37 -63 37 -32 0 -59 3 -59 6 0 3 19 31 43 62 52 68
61 83 50 80 -4 -1 -34 -3 -65 -5z m-1938 -343 c0 -29 -8 -48 -36 -81 -21 -25
-34 -50 -31 -60 6 -23 -94 -91 -137 -93 -29 -1 -31 1 -30 31 3 55 118 201 188
237 38 19 46 13 46 -34z m420 0 c0 -29 -8 -48 -36 -81 -21 -25 -34 -50 -31
-60 6 -23 -94 -91 -137 -93 -29 -1 -31 1 -30 31 3 55 118 201 188 237 38 19
46 13 46 -34z m1005 40 c22 -35 -177 -252 -252 -275 -19 -5 -23 -3 -23 16 0
52 122 193 210 243 50 29 56 30 65 16z m720 0 c22 -35 -177 -252 -252 -275
-19 -5 -23 -3 -23 16 0 52 122 193 210 243 50 29 56 30 65 16z"/>
</g>
</svg>
